<mxfile host="app.diagrams.net" modified="2022-02-18T06:18:39.899Z" agent="5.0 (Macintosh; Intel Mac OS X 10_15_7) AppleWebKit/537.36 (KHTML, like Gecko) Chrome/98.0.4758.80 Safari/537.36" etag="_MNqGA87yte2uNQoHbsC" version="16.6.1" type="github">
  <diagram id="kgpKYQtTHZ0yAKxKKP6v" name="Page-1">
    <mxGraphModel dx="946" dy="565" grid="1" gridSize="10" guides="1" tooltips="1" connect="1" arrows="1" fold="1" page="1" pageScale="1" pageWidth="850" pageHeight="1100" math="0" shadow="0">
      <root>
        <mxCell id="0" />
        <mxCell id="1" parent="0" />
        <mxCell id="3nuBFxr9cyL0pnOWT2aG-1" value="Webinar" style="shape=umlLifeline;perimeter=lifelinePerimeter;container=1;collapsible=0;recursiveResize=0;rounded=0;shadow=0;strokeWidth=1;" parent="1" vertex="1">
          <mxGeometry x="120" y="80" width="100" height="300" as="geometry" />
        </mxCell>
        <mxCell id="3nuBFxr9cyL0pnOWT2aG-2" value="" style="points=[];perimeter=orthogonalPerimeter;rounded=0;shadow=0;strokeWidth=1;" parent="3nuBFxr9cyL0pnOWT2aG-1" vertex="1">
          <mxGeometry x="45" y="80" width="10" height="190" as="geometry" />
        </mxCell>
        <mxCell id="3nuBFxr9cyL0pnOWT2aG-3" value="1&#xa;infoAction()" style="verticalAlign=bottom;startArrow=oval;endArrow=block;startSize=8;shadow=0;strokeWidth=1;entryX=-0.2;entryY=0.013;entryDx=0;entryDy=0;entryPerimeter=0;" parent="3nuBFxr9cyL0pnOWT2aG-1" target="3nuBFxr9cyL0pnOWT2aG-2" edge="1">
          <mxGeometry relative="1" as="geometry">
            <mxPoint x="-50" y="83" as="sourcePoint" />
            <mxPoint x="45" y="93" as="targetPoint" />
          </mxGeometry>
        </mxCell>
        <mxCell id="3nuBFxr9cyL0pnOWT2aG-5" value="WebinarService" style="shape=umlLifeline;perimeter=lifelinePerimeter;container=1;collapsible=0;recursiveResize=0;rounded=0;shadow=0;strokeWidth=1;" parent="1" vertex="1">
          <mxGeometry x="270" y="80" width="145" height="550" as="geometry" />
        </mxCell>
        <mxCell id="3nuBFxr9cyL0pnOWT2aG-6" value="" style="points=[];perimeter=orthogonalPerimeter;rounded=0;shadow=0;strokeWidth=1;" parent="3nuBFxr9cyL0pnOWT2aG-5" vertex="1">
          <mxGeometry x="67.5" y="80" width="10" height="470" as="geometry" />
        </mxCell>
        <mxCell id="UK8v2Z1n2UR7xHjHdUC0-11" value="1.1.3&#xa;getBusinessUserInfo()" style="verticalAlign=bottom;endArrow=block;shadow=0;strokeWidth=1;entryX=-0.2;entryY=0.653;entryDx=0;entryDy=0;entryPerimeter=0;" edge="1" parent="3nuBFxr9cyL0pnOWT2aG-5">
          <mxGeometry relative="1" as="geometry">
            <mxPoint x="77.5" y="381.0000000000001" as="sourcePoint" />
            <mxPoint x="253" y="380.48" as="targetPoint" />
            <Array as="points">
              <mxPoint x="133.5" y="381" />
            </Array>
          </mxGeometry>
        </mxCell>
        <mxCell id="3nuBFxr9cyL0pnOWT2aG-8" value="1.1&#xa;infoServer()" style="verticalAlign=bottom;endArrow=block;entryX=0;entryY=0;shadow=0;strokeWidth=1;" parent="1" edge="1">
          <mxGeometry relative="1" as="geometry">
            <mxPoint x="175" y="173.0000000000008" as="sourcePoint" />
            <mxPoint x="337.5" y="173.0000000000008" as="targetPoint" />
          </mxGeometry>
        </mxCell>
        <mxCell id="UK8v2Z1n2UR7xHjHdUC0-1" value="UserServerRequest" style="shape=umlLifeline;perimeter=lifelinePerimeter;container=1;collapsible=0;recursiveResize=0;rounded=0;shadow=0;strokeWidth=1;" vertex="1" parent="1">
          <mxGeometry x="480" y="80" width="100" height="560" as="geometry" />
        </mxCell>
        <mxCell id="UK8v2Z1n2UR7xHjHdUC0-2" value="" style="points=[];perimeter=orthogonalPerimeter;rounded=0;shadow=0;strokeWidth=1;" vertex="1" parent="UK8v2Z1n2UR7xHjHdUC0-1">
          <mxGeometry x="45" y="80" width="10" height="480" as="geometry" />
        </mxCell>
        <mxCell id="UK8v2Z1n2UR7xHjHdUC0-10" value="1.1.2&#xa;getWebinar()" style="verticalAlign=bottom;endArrow=block;shadow=0;strokeWidth=1;" edge="1" parent="UK8v2Z1n2UR7xHjHdUC0-1">
          <mxGeometry relative="1" as="geometry">
            <mxPoint x="-132.5" y="345.5000000000001" as="sourcePoint" />
            <mxPoint x="207.5" y="345.5000000000001" as="targetPoint" />
          </mxGeometry>
        </mxCell>
        <mxCell id="UK8v2Z1n2UR7xHjHdUC0-17" value="1.1.5&#xa;getUserInfo()" style="verticalAlign=bottom;endArrow=block;shadow=0;strokeWidth=1;" edge="1" parent="UK8v2Z1n2UR7xHjHdUC0-1">
          <mxGeometry relative="1" as="geometry">
            <mxPoint x="-132" y="466.0000000000001" as="sourcePoint" />
            <mxPoint x="467.5" y="466" as="targetPoint" />
            <Array as="points">
              <mxPoint x="-76" y="466" />
            </Array>
          </mxGeometry>
        </mxCell>
        <mxCell id="UK8v2Z1n2UR7xHjHdUC0-18" value="" style="points=[];perimeter=orthogonalPerimeter;rounded=0;shadow=0;strokeWidth=1;" vertex="1" parent="UK8v2Z1n2UR7xHjHdUC0-1">
          <mxGeometry x="50" y="130" width="10" height="160" as="geometry" />
        </mxCell>
        <mxCell id="UK8v2Z1n2UR7xHjHdUC0-20" value="" style="points=[];perimeter=orthogonalPerimeter;rounded=0;shadow=0;strokeWidth=1;" vertex="1" parent="UK8v2Z1n2UR7xHjHdUC0-1">
          <mxGeometry x="55" y="200" width="10" height="70" as="geometry" />
        </mxCell>
        <mxCell id="UK8v2Z1n2UR7xHjHdUC0-21" value="1.1.1.1.1(cache)&#xa;getConfigByWebinarId()" style="verticalAlign=bottom;endArrow=block;shadow=0;strokeWidth=1;entryX=1;entryY=0.579;entryDx=0;entryDy=0;entryPerimeter=0;exitX=1.1;exitY=0.378;exitDx=0;exitDy=0;exitPerimeter=0;fillColor=#FF9999;labelBackgroundColor=#FFFF66;" edge="1" parent="UK8v2Z1n2UR7xHjHdUC0-1" source="UK8v2Z1n2UR7xHjHdUC0-18" target="UK8v2Z1n2UR7xHjHdUC0-20">
          <mxGeometry x="0.0634" relative="1" as="geometry">
            <mxPoint x="65" y="190" as="sourcePoint" />
            <mxPoint x="70" y="174" as="targetPoint" />
            <Array as="points">
              <mxPoint x="140" y="190" />
              <mxPoint x="140" y="241" />
            </Array>
            <mxPoint as="offset" />
          </mxGeometry>
        </mxCell>
        <mxCell id="UK8v2Z1n2UR7xHjHdUC0-7" value="1.1.1&#xa;getWebinarConfig()" style="verticalAlign=bottom;endArrow=block;shadow=0;strokeWidth=1;" edge="1" parent="1">
          <mxGeometry relative="1" as="geometry">
            <mxPoint x="348" y="190.0000000000001" as="sourcePoint" />
            <mxPoint x="524" y="190" as="targetPoint" />
            <Array as="points">
              <mxPoint x="404" y="190" />
            </Array>
          </mxGeometry>
        </mxCell>
        <mxCell id="UK8v2Z1n2UR7xHjHdUC0-8" value="WebinarServerRequest" style="shape=umlLifeline;perimeter=lifelinePerimeter;container=1;collapsible=0;recursiveResize=0;rounded=0;shadow=0;strokeWidth=1;" vertex="1" parent="1">
          <mxGeometry x="640" y="80" width="100" height="300" as="geometry" />
        </mxCell>
        <mxCell id="UK8v2Z1n2UR7xHjHdUC0-9" value="" style="points=[];perimeter=orthogonalPerimeter;rounded=0;shadow=0;strokeWidth=1;" vertex="1" parent="UK8v2Z1n2UR7xHjHdUC0-8">
          <mxGeometry x="45" y="80" width="10" height="160" as="geometry" />
        </mxCell>
        <mxCell id="UK8v2Z1n2UR7xHjHdUC0-12" value="ApiCenterRequest" style="shape=umlLifeline;perimeter=lifelinePerimeter;container=1;collapsible=0;recursiveResize=0;rounded=0;shadow=0;strokeWidth=1;" vertex="1" parent="1">
          <mxGeometry x="780" y="80" width="100" height="300" as="geometry" />
        </mxCell>
        <mxCell id="UK8v2Z1n2UR7xHjHdUC0-13" value="" style="points=[];perimeter=orthogonalPerimeter;rounded=0;shadow=0;strokeWidth=1;" vertex="1" parent="UK8v2Z1n2UR7xHjHdUC0-12">
          <mxGeometry x="45" y="80" width="10" height="160" as="geometry" />
        </mxCell>
        <mxCell id="UK8v2Z1n2UR7xHjHdUC0-14" value="1.1.4&#xa;getBatchWebinarPv()" style="verticalAlign=bottom;endArrow=block;shadow=0;strokeWidth=1;entryX=0;entryY=0.872;entryDx=0;entryDy=0;entryPerimeter=0;" edge="1" parent="1">
          <mxGeometry relative="1" as="geometry">
            <mxPoint x="389" y="496" as="sourcePoint" />
            <mxPoint x="825" y="495.52" as="targetPoint" />
            <Array as="points">
              <mxPoint x="343" y="496" />
              <mxPoint x="389" y="496" />
            </Array>
          </mxGeometry>
        </mxCell>
        <mxCell id="UK8v2Z1n2UR7xHjHdUC0-15" value="UserService" style="shape=umlLifeline;perimeter=lifelinePerimeter;container=1;collapsible=0;recursiveResize=0;rounded=0;shadow=0;strokeWidth=1;" vertex="1" parent="1">
          <mxGeometry x="900" y="80" width="100" height="360" as="geometry" />
        </mxCell>
        <mxCell id="UK8v2Z1n2UR7xHjHdUC0-16" value="" style="points=[];perimeter=orthogonalPerimeter;rounded=0;shadow=0;strokeWidth=1;" vertex="1" parent="UK8v2Z1n2UR7xHjHdUC0-15">
          <mxGeometry x="45" y="80" width="10" height="210" as="geometry" />
        </mxCell>
        <mxCell id="UK8v2Z1n2UR7xHjHdUC0-19" value="1.1.1.1&#xa;dealGetWebinarConfig()" style="verticalAlign=bottom;endArrow=block;shadow=0;strokeWidth=1;" edge="1" parent="1" source="UK8v2Z1n2UR7xHjHdUC0-1">
          <mxGeometry x="0.0493" relative="1" as="geometry">
            <mxPoint x="620" y="220" as="sourcePoint" />
            <mxPoint x="540" y="244" as="targetPoint" />
            <Array as="points">
              <mxPoint x="600" y="200" />
              <mxPoint x="600" y="244" />
            </Array>
            <mxPoint as="offset" />
          </mxGeometry>
        </mxCell>
        <mxCell id="UK8v2Z1n2UR7xHjHdUC0-23" value="user-permission" style="shape=umlLifeline;perimeter=lifelinePerimeter;container=1;collapsible=0;recursiveResize=0;rounded=0;shadow=0;strokeWidth=1;" vertex="1" parent="1">
          <mxGeometry x="1020" y="80" width="100" height="360" as="geometry" />
        </mxCell>
        <mxCell id="UK8v2Z1n2UR7xHjHdUC0-24" value="" style="points=[];perimeter=orthogonalPerimeter;rounded=0;shadow=0;strokeWidth=1;" vertex="1" parent="UK8v2Z1n2UR7xHjHdUC0-23">
          <mxGeometry x="45" y="80" width="10" height="210" as="geometry" />
        </mxCell>
        <mxCell id="UK8v2Z1n2UR7xHjHdUC0-25" value="1.1.1.1.1.1(http)&#xa;/v3/users/permission/get-config-by-webinar" style="verticalAlign=bottom;endArrow=block;shadow=0;strokeWidth=1;labelBackgroundColor=#FF9999;" edge="1" parent="1" target="UK8v2Z1n2UR7xHjHdUC0-23">
          <mxGeometry relative="1" as="geometry">
            <mxPoint x="540" y="340.0000000000001" as="sourcePoint" />
            <mxPoint x="880" y="340.0000000000001" as="targetPoint" />
          </mxGeometry>
        </mxCell>
      </root>
    </mxGraphModel>
  </diagram>
</mxfile>
